# xmcd CD database file generated by Grip 2.95
# 
# Track frame offsets:
#       150
#       5772
#       17000
#       33945
#       37697
#       51240
#       67942
#       81232
#       90267
#       108665
#       122177
#       137205
#       151752
#       183265
# 
# Disc length: 2716 seconds
# 
# Revision: 3
# Processed by: cddbd v1.4PL0 Copyright (c) Steve Scherf et al.
# Submitted via: Grip 2.95
# 
DISCID=a70a9a0e
DTITLE=Morning 40 Federation - Trick Nasty
DYEAR=1900
DGENRE=
TTITLE0=Intro
TTITLE1=Trick Nasty
TTITLE2=Jimmy Cousins Left Town and Stonewall Jackson Died
TTITLE3=How Much That Is?
TTITLE4=Nuts
TTITLE5=Shakin' Bottles
TTITLE6=God Help Me
TTITLE7=Homeless
TTITLE8=Muddy Schnuckles Turned Brown
TTITLE9=Headlamp
TTITLE10=New Orleans Water
TTITLE11=Life is a Bucket
TTITLE12=One in the Bottle
TTITLE13=Chew It
EXTD=
EXTT0=
EXTT1=
EXTT2=
EXTT3=
EXTT4=
EXTT5=
EXTT6=
EXTT7=
EXTT8=
EXTT9=
EXTT10=
EXTT11=
EXTT12=
EXTT13=
PLAYORDER=
